<svg class="svg-sprite" xmlns="http://www.w3.org/2000/svg"><defs><symbol id="weather" viewBox="0 0 32 32" fill="none" xmlns="http://www.w3.org/2000/svg"><g clip-path="url(#clip0_901_2902)"><path d="M31 8v23H21V7h9c1 0 1 1 1 1z" fill="#FFE6EA"/><path d="M21 31H1V2c0-.55.45-1 1-1h18c.55 0 1 .45 1 1v29z" fill="#FFC44D"/><path d="M8 31h6v-6H8v6z" fill="#668077"/><path d="M21 28V2a1 1 0 0 0-1-1H2a1 1 0 0 0-1 1v29h7v-6h6v6h17V8s0-1-1-1h-6m-8-1v2m10 4v2m0 4v2M11 6v2M6 6v2m10 4v2m-5-2v2m-5-2v2m10 4v2m-5-2v2m-5-2v2" stroke="#000" stroke-width="2" stroke-linecap="round" stroke-linejoin="round"/></g><defs><clipPath id="clip0_901_2902"><path fill="#fff" d="M0 0h32v32H0z"/></clipPath></defs></symbol><symbol id="email" viewBox="0 0 1024 1024" class="icon" xmlns="http://www.w3.org/2000/svg"><path d="M913.872 369.867c-6.433-6.433-14.864-9.649-23.29-9.649H660.506l51.343-67.685a24.706 24.706 0 0 0 2.444-25.928c-4.18-8.43-12.738-13.706-22.133-13.706h-72.317V120.105c0-13.641-11.065-24.707-24.707-24.707H429.657c-13.641 0-24.706 11.066-24.706 24.707v132.794h-73.605a24.657 24.657 0 0 0-22.134 13.706 24.715 24.715 0 0 0 2.447 25.928l51.278 67.685H132.925c-8.43 0-16.856 3.215-23.294 9.65-6.433 6.432-9.649 14.863-9.649 23.292v498.113c0 8.426 3.215 16.856 9.65 23.289a32.85 32.85 0 0 0 23.293 9.652h757.657c8.426 0 16.856-3.218 23.289-9.652a32.84 32.84 0 0 0 9.652-23.29V393.16a32.835 32.835 0 0 0-9.651-23.293z" fill="#27323A"/><path d="M429.657 302.31c13.641 0 24.706-11.065 24.706-24.706V144.81H570.43v132.794c0 13.641 11.068 24.706 24.706 24.706h47.292c-36.351 47.806-105.259 138.717-130.673 172.238-25.415-33.52-94.388-124.367-130.672-172.238h48.574z" fill="#FFF"/><path d="m400.448 409.63 91.617 120.699c4.698 6.177 11.968 9.78 19.69 9.78s15.053-3.604 19.686-9.78l91.554-120.698H832.29l-322.08 277.622-319.445-277.622h209.684z" fill="#79CCBF"/><path d="m149.396 439.097 170.048 147.786-170.048 236.06zm23.546 435.706L356.89 619.439 477.78 724.506c9.395 8.235 21.425 12.739 33.972 12.739 12.481 0 24.578-4.504 33.907-12.676l120.959-105.13 183.943 255.364h-677.62zm701.17-51.86-170.049-236.06 170.048-147.786z" fill="#F4CE73"/></symbol><symbol id="humidity" xmlns="http://www.w3.org/2000/svg" xmlns:xlink="http://www.w3.org/1999/xlink" viewBox="0 0 512 512" xml:space="preserve"><path style="fill:#fee187" d="M256 285.767c-64.789 0-123.282 29.246-164.852 76.234C106.463 439.055 174.452 497.116 256 497.116s149.537-58.061 164.852-135.114c-41.57-46.988-100.063-76.235-164.852-76.235zm61.005 133.963c-18.495 0-33.488-14.994-33.488-33.488s14.994-33.488 33.488-33.488c18.496 0 33.488 14.994 33.488 33.488.001 18.496-14.992 33.488-33.488 33.488z"/><path style="fill:#ffc61b" d="M438.966 329.049c0-49.613-21.797-110.506-64.783-180.983-4.279-7.018-13.437-9.238-20.456-4.956-7.018 4.279-9.237 13.439-4.956 20.456 40.097 65.741 60.429 121.418 60.429 165.483 0 .11-.004.22-.004.33-43.146-37.931-96.519-58.496-153.195-58.496s-110.049 20.565-153.194 58.495c0-.11-.004-.22-.004-.329 0-105.374 116.495-249.024 153.213-291.675 9.247 10.716 23.54 27.809 39.702 49.036 4.98 6.54 14.317 7.805 20.858 2.825s7.805-14.318 2.825-20.858c-28.874-37.922-51.508-62.55-52.458-63.58a14.884 14.884 0 0 0-21.887-.001c-7.024 7.62-172.022 188.179-172.022 324.254a184.61 184.61 0 0 0 3.516 35.853C93.491 450.137 168.962 512 256 512a182.35 182.35 0 0 0 43.615-5.287c67.638-16.668 121.805-71.226 135.835-141.809.001-.009.001-.018.003-.025a184.576 184.576 0 0 0 3.513-35.83zM249.311 482.084c-.749-.033-1.488-.1-2.236-.143-1.468-.085-2.937-.165-4.395-.292-.881-.077-1.753-.19-2.63-.281-1.311-.137-2.625-.265-3.928-.436-.939-.124-1.868-.281-2.803-.421-1.228-.185-2.459-.359-3.678-.573-.963-.168-1.916-.371-2.874-.557-1.177-.229-2.358-.451-3.527-.708-.972-.213-1.933-.457-2.899-.689-1.139-.274-2.28-.542-3.411-.841-.973-.258-1.936-.543-2.902-.82-1.107-.317-2.215-.628-3.312-.969-.969-.301-1.927-.627-2.887-.947-1.078-.359-2.157-.714-3.224-1.095-.961-.344-1.913-.71-2.865-1.073-1.048-.399-2.097-.796-3.135-1.217-.951-.385-1.893-.792-2.835-1.197a153.707 153.707 0 0 1-3.05-1.337 148.27 148.27 0 0 1-2.794-1.317c-.993-.476-1.984-.956-2.965-1.453-.923-.467-1.837-.95-2.749-1.436a148.427 148.427 0 0 1-2.883-1.567 149.13 149.13 0 0 1-2.694-1.549 143.098 143.098 0 0 1-5.437-3.341 150.245 150.245 0 0 1-5.286-3.558 156.343 156.343 0 0 1-5.131-3.768 151.153 151.153 0 0 1-2.529-1.986c-.82-.656-1.634-1.317-2.441-1.99-.82-.685-1.63-1.381-2.436-2.084a161.415 161.415 0 0 1-2.365-2.093 155.33 155.33 0 0 1-2.341-2.177 152.394 152.394 0 0 1-2.283-2.191 160.884 160.884 0 0 1-2.249-2.276c-.735-.756-1.472-1.511-2.192-2.282-.729-.78-1.441-1.575-2.154-2.37-.705-.787-1.412-1.572-2.102-2.374-.697-.81-1.374-1.636-2.052-2.46-.673-.816-1.35-1.63-2.006-2.46-.664-.839-1.305-1.698-1.953-2.553-.639-.844-1.283-1.683-1.905-2.542-.63-.868-1.234-1.755-1.846-2.637-.604-.872-1.216-1.738-1.802-2.622-.597-.9-1.165-1.819-1.744-2.733-.566-.893-1.14-1.78-1.688-2.686-.566-.938-1.103-1.896-1.649-2.847-.522-.908-1.057-1.808-1.56-2.728-.539-.985-1.046-1.991-1.564-2.992-.472-.909-.96-1.81-1.414-2.731-.521-1.058-1.008-2.137-1.505-3.209-.412-.887-.844-1.765-1.24-2.663-.549-1.246-1.058-2.515-1.576-3.78-.305-.744-.631-1.476-.924-2.227a150.71 150.71 0 0 1-2.234-6.099c-.252-.737-.47-1.49-.713-2.233-.438-1.344-.883-2.685-1.283-4.047-.255-.866-.475-1.749-.714-2.623-.32-1.165-.649-2.326-.944-3.504 40.042-42.393 92.539-65.649 148.627-65.649 56.086 0 108.584 23.254 148.626 65.657-.327 1.313-.691 2.611-1.052 3.908-.202.726-.382 1.462-.595 2.182a155.085 155.085 0 0 1-1.549 4.886c-.153.461-.287.933-.445 1.392a149.389 149.389 0 0 1-2.259 6.166c-.141.36-.301.71-.444 1.069a155.42 155.42 0 0 1-2.058 4.938c-.319.72-.667 1.421-.994 2.136-.576 1.25-1.145 2.503-1.752 3.734-.397.804-.825 1.59-1.235 2.384-.576 1.118-1.145 2.24-1.747 3.34-.455.832-.939 1.643-1.409 2.465-.595 1.04-1.183 2.085-1.801 3.109-.505.835-1.036 1.652-1.555 2.477-.621.985-1.235 1.975-1.878 2.944-.546.825-1.116 1.63-1.679 2.444-.652.942-1.299 1.889-1.971 2.816-.588.81-1.195 1.601-1.798 2.399-.682.902-1.359 1.805-2.058 2.691-.627.792-1.271 1.566-1.913 2.346-.71.863-1.418 1.727-2.148 2.573-.661.768-1.34 1.521-2.015 2.276-.741.828-1.482 1.655-2.24 2.466-.694.743-1.404 1.469-2.112 2.197-.771.793-1.545 1.584-2.332 2.361-.726.714-1.465 1.415-2.204 2.115-.801.758-1.604 1.512-2.42 2.252-.756.686-1.523 1.359-2.292 2.029-.831.723-1.664 1.441-2.509 2.145-.783.653-1.576 1.296-2.372 1.933-.859.688-1.724 1.369-2.597 2.039a158.132 158.132 0 0 1-7.65 5.5c-.915.618-1.84 1.223-2.768 1.82a143.772 143.772 0 0 1-5.436 3.337c-.878.515-1.758 1.024-2.646 1.521-.97.543-1.95 1.07-2.932 1.593-.897.478-1.795.951-2.703 1.411-.996.505-2.002.991-3.011 1.475-.914.438-1.828.877-2.752 1.296-1.024.466-2.057.911-3.093 1.356-.929.399-1.857.799-2.795 1.179-1.051.426-2.112.829-3.173 1.232-.941.357-1.881.72-2.831 1.06-1.076.385-2.164.744-3.252 1.106-.953.317-1.904.64-2.864.939-1.104.342-2.219.656-3.332.975-.96.274-1.917.558-2.883.814-1.136.301-2.283.57-3.429.845-.96.231-1.916.473-2.883.685-1.174.258-2.359.481-3.541.711-.954.186-1.902.387-2.861.554-1.223.214-2.459.39-3.691.574-.93.14-1.856.296-2.791.42-1.305.171-2.622.299-3.938.438-.874.092-1.743.204-2.62.281-1.46.128-2.932.207-4.401.293-.744.043-1.482.11-2.23.143a153.184 153.184 0 0 1-13.376.006z"/><path style="fill:#ffc61b" d="M317.005 434.614c26.673 0 48.372-21.7 48.372-48.372s-21.699-48.372-48.372-48.372-48.372 21.7-48.372 48.372 21.699 48.372 48.372 48.372zm0-66.977c10.259 0 18.605 8.345 18.605 18.605 0 10.259-8.345 18.605-18.605 18.605-10.259 0-18.605-8.345-18.605-18.605.001-10.26 8.348-18.605 18.605-18.605z"/></symbol><symbol id="thermometer" viewBox="0 0 1024 1024" class="icon" xmlns="http://www.w3.org/2000/svg"><path d="M409.209 262.295v344.729c-54.508 33.715-88.16 93.574-88.16 162.025C321.049 874.508 406.684 960 512.918 960c106.204 0 190.033-85.492 190.033-190.951 0-67.562-35.431-126.789-88.762-160.728v-440.11C614.189 110.662 568.287 64 511.685 64c-56.603 0-102.476 46.662-102.476 104.211v94.084z" fill="#FCB814"/><path d="M614.187 608.322V168.209c0-57.546-45.9-104.209-102.502-104.209-7.572 0-14.929.894-22.033 2.479 46.005 10.261 80.47 51.883 80.47 101.73v440.112c53.333 33.939 88.764 93.166 88.764 160.728 0 98.043-72.488 178.727-168.016 189.602 7.244.823 14.578 1.348 22.049 1.348 106.204 0 190.033-85.492 190.033-190.951-.001-67.561-35.432-126.787-88.765-160.726z" fill="#030504"/><path d="M553.843 648.47V485.08c0-23.938-18.432-29.386-41.083-29.386-22.666 0-42.605 6.968-42.605 30.906v161.87c-43.886 16.848-75.092 59.274-75.092 109.091 0 64.582 52.355 116.937 116.937 116.937s116.937-52.355 116.937-116.937c0-49.818-31.208-92.243-75.094-109.091z" fill="#FF3B30"/><path d="M553.843 648.47V485.08c0-23.938-18.431-29.386-41.083-29.386-4.873 0-9.563.404-14.013 1.151 15.051 2.558 25.72 10.044 25.72 28.234v163.39c43.886 16.848 75.092 59.274 75.092 109.091 0 59.596-44.615 108.676-102.247 115.917 4.822.606 9.702 1.018 14.688 1.018 64.582 0 116.937-52.353 116.937-116.936 0-49.816-31.208-92.241-75.094-109.089z" fill="#030504"/><path d="M441.607 788.814a25.705 25.705 0 1 0 51.41 0 25.705 25.705 0 1 0-51.41 0zM511.582 629.319c-8.246 0-14.933-6.687-14.933-14.933V179.241c0-8.248 6.687-14.933 14.933-14.933 8.248 0 14.933 6.686 14.933 14.933v435.146c0 8.245-6.686 14.932-14.933 14.932z" fill="#FFF"/></symbol><symbol id="wind" xmlns="http://www.w3.org/2000/svg" xmlns:xlink="http://www.w3.org/1999/xlink" viewBox="0 0 512 512" xml:space="preserve"><path style="fill:#ffc61b" d="M86.814 305.815H14.583C6.53 305.815 0 299.286 0 291.232s6.53-14.583 14.583-14.583h72.231c8.053 0 14.583 6.529 14.583 14.583s-6.529 14.583-14.583 14.583z"/><circle style="fill:#fee187" cx="427.62" cy="361.02" r="69.79"/><path style="fill:#ffc61b" d="M427.626 276.648c-.639 0-1.272.034-1.908.048-.318-.02-.634-.048-.958-.048H148.071c-8.053 0-14.583 6.529-14.583 14.583s6.53 14.583 14.583 14.583h215.833c-12.848 14.809-20.65 34.107-20.65 55.206 0 46.523 37.849 84.373 84.371 84.373 46.523 0 84.373-37.849 84.373-84.373s-37.847-84.372-84.372-84.372zm0 139.58c-30.441 0-55.205-24.765-55.205-55.206s24.764-55.206 55.205-55.206 55.206 24.765 55.206 55.206-24.765 55.206-55.206 55.206zM426.809 247.1H78.545c-8.053 0-14.583-6.529-14.583-14.583s6.53-14.583 14.583-14.583h348.264c30.893 0 56.024-25.131 56.024-56.024s-25.131-56.024-56.024-56.024c-30.892 0-56.023 25.131-56.023 56.024 0 8.054-6.53 14.583-14.583 14.583s-14.583-6.529-14.583-14.583c0-46.974 38.215-85.191 85.189-85.191S512 114.935 512 161.909 473.783 247.1 426.809 247.1zM134.959 188.981H14.583C6.53 188.981 0 182.452 0 174.398s6.53-14.583 14.583-14.583h120.376c8.053 0 14.583 6.529 14.583 14.583s-6.53 14.583-14.583 14.583z"/><path style="fill:#ffc61b" d="M243.693 188.981h-47.484c-8.053 0-14.583-6.529-14.583-14.583s6.53-14.583 14.583-14.583h47.484c19.515 0 35.394-15.877 35.394-35.392s-15.878-35.392-35.394-35.392-35.392 15.877-35.392 35.392c0 8.054-6.53 14.583-14.583 14.583s-14.583-6.529-14.583-14.583c0-35.598 28.959-64.559 64.559-64.559s64.56 28.961 64.56 64.559-28.962 64.558-64.561 64.558zM256.187 452.136c-32.241 0-58.471-26.229-58.471-58.471 0-8.054 6.53-14.583 14.583-14.583s14.583 6.529 14.583 14.583c0 16.158 13.147 29.305 29.305 29.305s29.305-13.147 29.305-29.305-13.147-29.305-29.305-29.305H78.545c-8.053 0-14.583-6.529-14.583-14.583s6.53-14.583 14.583-14.583h177.641c32.241 0 58.471 26.229 58.471 58.471s-26.23 58.471-58.47 58.471z"/></symbol></defs></svg>